<?xml version="1.0" encoding="UTF-8" standalone="no"?>
<svg
   xmlns:dc="http://purl.org/dc/elements/1.1/"
   xmlns:cc="http://creativecommons.org/ns#"
   xmlns:rdf="http://www.w3.org/1999/02/22-rdf-syntax-ns#"
   xmlns:svg="http://www.w3.org/2000/svg"
   xmlns="http://www.w3.org/2000/svg"
   id="svg6"
   version="1.1"
   viewBox="0 0 24 24"
   height="24"
   width="24">
  <metadata
     id="metadata12">
    <rdf:RDF>
      <cc:Work
         rdf:about="">
        <dc:format>image/svg+xml</dc:format>
        <dc:type
           rdf:resource="http://purl.org/dc/dcmitype/StillImage" />
        <dc:title></dc:title>
      </cc:Work>
    </rdf:RDF>
  </metadata>
  <defs
     id="defs10" />
  <path
     id="path2-9"
     d="m 12,3.7977287 c -4.5276535,0 -8.2022709,3.6746173 -8.2022709,8.2022703 0,4.527654 3.6746174,8.202272 8.2022709,8.202272 4.527654,0 8.202271,-3.674618 8.202271,-8.202271 0,-4.527654 -3.674617,-8.2022713 -8.202271,-8.2022713 z"
     style="fill:#ffffff;stroke-width:0.82022709" />
  <path
     style="fill:#b3b3b3"
     fill="#000000"
     id="path2"
     d="M12 2C6.48 2 2 6.48 2 12s4.48 10 10 10 10-4.48 10-10S17.52 2 12 2zm0 3c1.66 0 3 1.34 3 3s-1.34 3-3 3-3-1.34-3-3 1.34-3 3-3zm0 14.2c-2.5 0-4.71-1.28-6-3.22.03-1.99 4-3.08 6-3.08 1.99 0 5.97 1.09 6 3.08-1.29 1.94-3.5 3.22-6 3.22z" />
  <path
     id="path4"
     fill="none"
     d="M0 0h24v24H0z" />
</svg>
